<svg width="78" height="78" viewBox="0 0 78 78" fill="none" xmlns="http://www.w3.org/2000/svg">
<circle cx="39.0928" cy="39.0928" r="38.0928" fill="#FF8F27"/>
<path d="M65.32 11.8C65.4267 11.9067 65.48 11.9867 65.48 12.04H65.4H58.84H45.16H32.68V18.92V25H35H44.2C44.52 25.2667 44.76 25.5067 44.92 25.72C45.08 25.88 45.2133 26.04 45.32 26.2C45.48 26.36 45.6133 26.52 45.72 26.68C46.3067 27.3733 46.8933 28.0667 47.48 28.76C48.12 29.4533 48.7333 30.1733 49.32 30.92C49.9067 31.6133 50.4933 32.3067 51.08 33C51.6667 33.6933 52.2533 34.4133 52.84 35.16C53.0533 35.4267 53.2667 35.6933 53.48 35.96C53.6933 36.1733 53.9067 36.4133 54.12 36.68C54.1733 36.7333 54.2 36.7867 54.2 36.84C54.2 36.84 54.2267 36.8667 54.28 36.92H50.92H36.2H32.68V42.76C32.7333 43.1867 32.7067 43.64 32.6 44.12C32.5467 44.6 32.4667 45.08 32.36 45.56C32.0933 46.36 31.6933 47.16 31.16 47.96C30.6267 48.7067 29.9867 49.3467 29.24 49.88C28.5467 50.4133 27.7733 50.7867 26.92 51C26.0667 51.2133 25.1867 51.1867 24.28 50.92C23.3733 50.6533 22.6533 50.2533 22.12 49.72C22.0133 49.56 21.8533 49.3733 21.64 49.16C21.8533 49.48 21.6933 49.3733 21.16 48.84C20.68 48.3067 20.04 47.5867 19.24 46.68C18.44 45.72 17.5333 44.6533 16.52 43.48C15.56 42.3067 14.68 41.24 13.88 40.28C13.08 39.2667 12.4667 38.4933 12.04 37.96C11.6133 37.3733 11.5333 37.1867 11.8 37.4C11.7467 37.4 11.72 37.3733 11.72 37.32C11.6133 37.2133 11.4533 37 11.24 36.68C10.76 35.9333 10.4667 35.1067 10.36 34.2C10.2 33.24 10.2 32.3067 10.36 31.4C10.7867 29.2667 11.8267 27.56 13.48 26.28C14.0133 25.9067 14.5733 25.6133 15.16 25.4C15.7467 25.1333 16.36 25 17 25H16.92H20.28H22.68V23.96V12.04H16.36H10.92C10.6 11.72 10.36 11.4533 10.2 11.24C10.04 11.0267 9.77333 10.7333 9.4 10.36C8.81333 9.61333 8.22667 8.92 7.64 8.28C7.05333 7.58667 6.46667 6.86667 5.88 6.12C5.29333 5.37333 4.70667 4.68 4.12 4.04C3.53333 3.34666 2.94667 2.62666 2.36 1.88C2.09333 1.61333 1.88 1.34666 1.72 1.08C1.50667 0.813331 1.29333 0.546664 1.08 0.279998C0.973333 0.279998 0.919999 0.226664 0.919999 0.119995H1H7.64H21.24H37H50.04H55.48C55.8 0.439997 56.04 0.706665 56.2 0.919999C56.3067 1.02666 56.44 1.16 56.6 1.32C56.76 1.48 56.8933 1.64 57 1.8C57.5867 2.54666 58.1733 3.26666 58.76 3.96C59.3467 4.6 59.9333 5.29333 60.52 6.04C61.1067 6.73333 61.6933 7.42666 62.28 8.12C62.92 8.81333 63.5333 9.53333 64.12 10.28C64.3333 10.5467 64.52 10.8133 64.68 11.08C64.8933 11.2933 65.1067 11.5333 65.32 11.8ZM51.4425 12.04H50.8025C51.2825 12.6267 51.7358 13.2133 52.1625 13.8C52.6425 14.3333 53.1225 14.8933 53.6025 15.48C53.7092 15.64 53.8158 15.8267 53.9225 16.04C54.0825 16.2 54.2158 16.36 54.3225 16.52C54.5892 16.8933 54.8292 17.2667 55.0425 17.64C55.2558 18.0133 55.4425 18.4133 55.6025 18.84C55.8692 19.4267 56.0292 20.04 56.0825 20.68C56.1358 21.2667 56.1625 21.9067 56.1625 22.6V24.92V40.6V57.16V61.88C56.1625 62.68 56.2425 63.4267 56.4025 64.12C56.7758 65.3467 57.3358 66.4667 58.0825 67.48C58.8292 68.44 59.5758 69.3467 60.3225 70.2C60.5358 70.4667 60.7225 70.7333 60.8825 71C61.0958 71.2667 61.3092 71.5333 61.5225 71.8C61.6292 71.8 61.6825 71.8533 61.6825 71.96C61.5758 71.8533 61.5225 71.7733 61.5225 71.72C61.0958 71.4 60.7225 71.0267 60.4025 70.6C58.8025 68.7867 57.2292 66.9733 55.6825 65.16C54.1892 63.3467 52.6692 61.5067 51.1225 59.64C50.3758 58.7333 49.6558 57.8533 48.9625 57C48.2692 56.0933 47.6558 55.1067 47.1225 54.04C46.8558 53.4533 46.6158 52.8667 46.4025 52.28C46.2425 51.6933 46.1625 51.08 46.1625 50.44V48.92V35V17.64V12.04H42.3225C42.0025 11.72 41.7625 11.4533 41.6025 11.24C41.2825 10.8133 41.0158 10.52 40.8025 10.36C40.2158 9.61333 39.6292 8.92 39.0425 8.28C38.4558 7.58667 37.8692 6.86667 37.2825 6.12C36.6958 5.37333 36.1092 4.68 35.5225 4.04C34.9358 3.34666 34.3492 2.62666 33.7625 1.88C33.4958 1.61333 33.2825 1.34666 33.1225 1.08C32.9092 0.813331 32.6958 0.546664 32.4825 0.279998C32.3758 0.279998 32.3225 0.226664 32.3225 0.119995H36.0825H50.8825H60.0025C60.3225 0.386665 60.5625 0.626665 60.7225 0.839995C60.9358 1.05333 61.2025 1.37333 61.5225 1.8C62.1092 2.49333 62.6958 3.18667 63.2825 3.88C63.9225 4.57333 64.5358 5.29333 65.1225 6.04C65.7092 6.73333 66.2958 7.42666 66.8825 8.12C67.4692 8.81333 68.0558 9.53333 68.6425 10.28C68.8558 10.5467 69.0692 10.8133 69.2825 11.08C69.4958 11.2933 69.7092 11.5333 69.9225 11.8C69.9225 11.8533 69.9758 11.9333 70.0825 12.04H66.2425H51.4425Z" fill="white"/>
</svg>
